<mxfile host="app.diagrams.net" modified="2023-09-09T03:14:12.337Z" agent="Mozilla/5.0 (Windows NT 10.0; Win64; x64) AppleWebKit/537.36 (KHTML, like Gecko) Chrome/116.0.0.0 Safari/537.36" version="21.7.0" etag="zH-ywpdG1QOxsrhLfw3K" type="github">
  <diagram name="Page-1" id="6tE4ANxdIw06qt1irSHT">
    <mxGraphModel>
      <root>
        <mxCell id="0" />
        <mxCell id="1" parent="0" />
      </root>
    </mxGraphModel>
  </diagram>
</mxfile>
